<svg width="12" height="9" viewBox="0 0 12 9" fill="none" xmlns="http://www.w3.org/2000/svg">
<path d="M3.23917 0.119407V8.84668H2.18235V1.22736H2.13121L0.000532687 2.64213V1.56827L2.18235 0.119407H3.23917ZM5.74911 8.84668V8.07963L8.62979 4.92622C8.96786 4.55691 9.24627 4.23588 9.46502 3.96316C9.68377 3.68759 9.8457 3.42907 9.95082 3.18759C10.0588 2.94327 10.1127 2.68759 10.1127 2.42054C10.1127 2.11373 10.0389 1.8481 9.89116 1.62367C9.74627 1.39924 9.54741 1.22594 9.29457 1.10378C9.04173 0.981623 8.75763 0.920543 8.44229 0.920543C8.10707 0.920543 7.81445 0.990145 7.56445 1.12935C7.31729 1.26571 7.12553 1.45747 6.98917 1.70463C6.85565 1.95179 6.78889 2.24157 6.78889 2.57395H5.7832C5.7832 2.06259 5.9011 1.61372 6.1369 1.22736C6.37269 0.840997 6.69371 0.539861 7.09996 0.323952C7.50906 0.108043 7.96786 8.84533e-05 8.47638 8.84533e-05C8.98775 8.84533e-05 9.44087 0.108043 9.83576 0.323952C10.2306 0.539861 10.5403 0.831054 10.7647 1.19753C10.9892 1.56401 11.1014 1.97168 11.1014 2.42054C11.1014 2.74157 11.0431 3.05549 10.9267 3.3623C10.813 3.66628 10.6142 4.00577 10.3301 4.38077C10.0488 4.75293 9.6582 5.20747 9.1582 5.74441L7.19798 7.841V7.90918H11.2548V8.84668H5.74911Z" fill="black"/>
</svg>
