<svg width="322" height="18" viewBox="0 0 322 18" fill="none" xmlns="http://www.w3.org/2000/svg">
<path d="M1.392 13V7.64L1.648 7.912H0.072V7.4H1.968V13H1.392ZM4.13063 11.912L4.14663 11.184L6.76263 8.8H7.45863L5.61063 10.568L5.29063 10.84L4.13063 11.912ZM3.68263 13V7.064H4.25063V13H3.68263ZM6.93863 13L5.18663 10.816L5.55463 10.376L7.63463 13H6.93863ZM10.1074 14.592C9.72344 14.592 9.35544 14.536 9.00344 14.424C8.65144 14.312 8.3661 14.152 8.14744 13.944L8.43544 13.512C8.63277 13.688 8.87544 13.8267 9.16344 13.928C9.45677 14.0347 9.7661 14.088 10.0914 14.088C10.6248 14.088 11.0168 13.9627 11.2674 13.712C11.5181 13.4667 11.6434 13.0827 11.6434 12.56V11.512L11.7234 10.792L11.6674 10.072V8.8H12.2114V12.488C12.2114 13.2133 12.0328 13.744 11.6754 14.08C11.3234 14.4213 10.8008 14.592 10.1074 14.592ZM10.0034 12.84C9.60344 12.84 9.24344 12.7547 8.92344 12.584C8.60344 12.408 8.3501 12.1653 8.16344 11.856C7.9821 11.5467 7.89144 11.192 7.89144 10.792C7.89144 10.392 7.9821 10.04 8.16344 9.736C8.3501 9.42667 8.60344 9.18667 8.92344 9.016C9.24344 8.84533 9.60344 8.76 10.0034 8.76C10.3768 8.76 10.7128 8.83733 11.0114 8.992C11.3101 9.14667 11.5474 9.376 11.7234 9.68C11.8994 9.984 11.9874 10.3547 11.9874 10.792C11.9874 11.2293 11.8994 11.6 11.7234 11.904C11.5474 12.208 11.3101 12.44 11.0114 12.6C10.7128 12.76 10.3768 12.84 10.0034 12.84ZM10.0594 12.336C10.3688 12.336 10.6434 12.272 10.8834 12.144C11.1234 12.0107 11.3128 11.8293 11.4514 11.6C11.5901 11.3653 11.6594 11.096 11.6594 10.792C11.6594 10.488 11.5901 10.2213 11.4514 9.992C11.3128 9.76267 11.1234 9.584 10.8834 9.456C10.6434 9.32267 10.3688 9.256 10.0594 9.256C9.75544 9.256 9.48077 9.32267 9.23544 9.456C8.99544 9.584 8.8061 9.76267 8.66744 9.992C8.5341 10.2213 8.46744 10.488 8.46744 10.792C8.46744 11.096 8.5341 11.3653 8.66744 11.6C8.8061 11.8293 8.99544 12.0107 9.23544 12.144C9.48077 12.272 9.75544 12.336 10.0594 12.336ZM17.5498 13.048C17.1338 13.048 16.7338 12.9813 16.3498 12.848C15.9711 12.7093 15.6778 12.5333 15.4698 12.32L15.7018 11.864C15.8991 12.056 16.1631 12.2187 16.4938 12.352C16.8298 12.48 17.1818 12.544 17.5498 12.544C17.9018 12.544 18.1871 12.5013 18.4058 12.416C18.6298 12.3253 18.7924 12.2053 18.8938 12.056C19.0004 11.9067 19.0538 11.7413 19.0538 11.56C19.0538 11.3413 18.9898 11.1653 18.8618 11.032C18.7391 10.8987 18.5764 10.7947 18.3738 10.72C18.1711 10.64 17.9471 10.5707 17.7018 10.512C17.4564 10.4533 17.2111 10.392 16.9658 10.328C16.7204 10.2587 16.4938 10.168 16.2858 10.056C16.0831 9.944 15.9178 9.79733 15.7898 9.616C15.6671 9.42933 15.6058 9.18667 15.6058 8.888C15.6058 8.61067 15.6778 8.35733 15.8218 8.128C15.9711 7.89333 16.1978 7.70667 16.5018 7.568C16.8058 7.424 17.1951 7.352 17.6698 7.352C17.9844 7.352 18.2964 7.39733 18.6058 7.488C18.9151 7.57333 19.1818 7.69333 19.4058 7.848L19.2057 8.32C18.9658 8.16 18.7098 8.04267 18.4378 7.968C18.1711 7.89333 17.9124 7.856 17.6618 7.856C17.3258 7.856 17.0484 7.90133 16.8298 7.992C16.6111 8.08267 16.4484 8.20533 16.3418 8.36C16.2404 8.50933 16.1898 8.68 16.1898 8.872C16.1898 9.09067 16.2511 9.26667 16.3738 9.4C16.5018 9.53333 16.6671 9.63733 16.8698 9.712C17.0778 9.78667 17.3044 9.85333 17.5498 9.912C17.7951 9.97067 18.0378 10.0347 18.2778 10.104C18.5231 10.1733 18.7471 10.264 18.9498 10.376C19.1578 10.4827 19.3231 10.6267 19.4458 10.808C19.5738 10.9893 19.6378 11.2267 19.6378 11.52C19.6378 11.792 19.5631 12.0453 19.4138 12.28C19.2644 12.5093 19.0351 12.696 18.7258 12.84C18.4218 12.9787 18.0298 13.048 17.5498 13.048ZM21.5855 13L20.0015 8.8H20.5455L21.9855 12.696H21.7375L23.2175 8.8H23.7055L25.1695 12.696H24.9215L26.3855 8.8H26.9055L25.3135 13H24.7775L23.3695 9.336H23.5375L22.1215 13H21.5855ZM29.4276 13.04C28.9902 13.04 28.6062 12.9493 28.2756 12.768C27.9449 12.5813 27.6862 12.328 27.4996 12.008C27.3129 11.6827 27.2196 11.312 27.2196 10.896C27.2196 10.48 27.3076 10.112 27.4836 9.792C27.6649 9.472 27.9102 9.22133 28.2196 9.04C28.5342 8.85333 28.8862 8.76 29.2756 8.76C29.6702 8.76 30.0196 8.85067 30.3236 9.032C30.6329 9.208 30.8756 9.45867 31.0516 9.784C31.2276 10.104 31.3156 10.4747 31.3156 10.896C31.3156 10.9227 31.3129 10.952 31.3076 10.984C31.3076 11.0107 31.3076 11.04 31.3076 11.072H27.6516V10.648H31.0036L30.7796 10.816C30.7796 10.512 30.7129 10.2427 30.5796 10.008C30.4516 9.768 30.2756 9.58133 30.0516 9.448C29.8276 9.31467 29.5689 9.248 29.2756 9.248C28.9876 9.248 28.7289 9.31467 28.4996 9.448C28.2702 9.58133 28.0916 9.768 27.9636 10.008C27.8356 10.248 27.7716 10.5227 27.7716 10.832V10.92C27.7716 11.24 27.8409 11.5227 27.9796 11.768C28.1236 12.008 28.3209 12.1973 28.5716 12.336C28.8276 12.4693 29.1182 12.536 29.4436 12.536C29.6996 12.536 29.9369 12.4907 30.1556 12.4C30.3796 12.3093 30.5716 12.1707 30.7316 11.984L31.0516 12.352C30.8649 12.576 30.6302 12.7467 30.3476 12.864C30.0702 12.9813 29.7636 13.04 29.4276 13.04ZM34.2557 13.04C33.8184 13.04 33.4344 12.9493 33.1037 12.768C32.773 12.5813 32.5144 12.328 32.3277 12.008C32.141 11.6827 32.0477 11.312 32.0477 10.896C32.0477 10.48 32.1357 10.112 32.3117 9.792C32.493 9.472 32.7384 9.22133 33.0477 9.04C33.3624 8.85333 33.7144 8.76 34.1037 8.76C34.4984 8.76 34.8477 8.85067 35.1517 9.032C35.461 9.208 35.7037 9.45867 35.8797 9.784C36.0557 10.104 36.1437 10.4747 36.1437 10.896C36.1437 10.9227 36.141 10.952 36.1357 10.984C36.1357 11.0107 36.1357 11.04 36.1357 11.072H32.4797V10.648H35.8317L35.6077 10.816C35.6077 10.512 35.541 10.2427 35.4077 10.008C35.2797 9.768 35.1037 9.58133 34.8797 9.448C34.6557 9.31467 34.397 9.248 34.1037 9.248C33.8157 9.248 33.557 9.31467 33.3277 9.448C33.0984 9.58133 32.9197 9.768 32.7917 10.008C32.6637 10.248 32.5997 10.5227 32.5997 10.832V10.92C32.5997 11.24 32.669 11.5227 32.8077 11.768C32.9517 12.008 33.149 12.1973 33.3997 12.336C33.6557 12.4693 33.9464 12.536 34.2717 12.536C34.5277 12.536 34.765 12.4907 34.9837 12.4C35.2077 12.3093 35.3997 12.1707 35.5597 11.984L35.8797 12.352C35.693 12.576 35.4584 12.7467 35.1757 12.864C34.8984 12.9813 34.5917 13.04 34.2557 13.04ZM38.6278 13.04C38.2331 13.04 37.9291 12.9333 37.7158 12.72C37.5025 12.5067 37.3958 12.2053 37.3958 11.816V7.872H37.9638V11.784C37.9638 12.0293 38.0251 12.2187 38.1478 12.352C38.2758 12.4853 38.4571 12.552 38.6918 12.552C38.9425 12.552 39.1505 12.48 39.3158 12.336L39.5158 12.744C39.4038 12.8453 39.2678 12.92 39.1078 12.968C38.9531 13.016 38.7931 13.04 38.6278 13.04ZM36.6438 9.272V8.8H39.2438V9.272H36.6438ZM42.7636 13V7.4H45.1796C45.8036 7.4 46.2862 7.52533 46.6276 7.776C46.9742 8.02667 47.1476 8.38133 47.1476 8.84C47.1476 9.144 47.0756 9.4 46.9316 9.608C46.7929 9.816 46.6009 9.97333 46.3556 10.08C46.1156 10.1867 45.8516 10.24 45.5636 10.24L45.6996 10.048C46.0569 10.048 46.3636 10.104 46.6196 10.216C46.8809 10.3227 47.0836 10.4853 47.2276 10.704C47.3716 10.9173 47.4436 11.184 47.4436 11.504C47.4436 11.9787 47.2676 12.3467 46.9156 12.608C46.5689 12.8693 46.0436 13 45.3396 13H42.7636ZM43.3556 12.512H45.3316C45.8222 12.512 46.1982 12.4293 46.4596 12.264C46.7209 12.0933 46.8516 11.824 46.8516 11.456C46.8516 11.0933 46.7209 10.8293 46.4596 10.664C46.1982 10.4933 45.8222 10.408 45.3316 10.408H43.2916V9.92H45.1396C45.5876 9.92 45.9342 9.83467 46.1796 9.664C46.4302 9.49333 46.5556 9.24 46.5556 8.904C46.5556 8.56267 46.4302 8.30933 46.1796 8.144C45.9342 7.97333 45.5876 7.888 45.1396 7.888H43.3556V12.512ZM50.3868 13.04C49.9815 13.04 49.6161 12.9493 49.2908 12.768C48.9708 12.5813 48.7175 12.328 48.5308 12.008C48.3441 11.6827 48.2508 11.312 48.2508 10.896C48.2508 10.4747 48.3441 10.104 48.5308 9.784C48.7175 9.464 48.9708 9.21333 49.2908 9.032C49.6108 8.85067 49.9761 8.76 50.3868 8.76C50.8028 8.76 51.1708 8.85067 51.4908 9.032C51.8161 9.21333 52.0695 9.464 52.2508 9.784C52.4375 10.104 52.5308 10.4747 52.5308 10.896C52.5308 11.312 52.4375 11.6827 52.2508 12.008C52.0695 12.328 51.8161 12.5813 51.4908 12.768C51.1655 12.9493 50.7975 13.04 50.3868 13.04ZM50.3868 12.536C50.6908 12.536 50.9601 12.4693 51.1948 12.336C51.4295 12.1973 51.6135 12.0053 51.7468 11.76C51.8855 11.5093 51.9548 11.2213 51.9548 10.896C51.9548 10.5653 51.8855 10.2773 51.7468 10.032C51.6135 9.78667 51.4295 9.59733 51.1948 9.464C50.9601 9.32533 50.6935 9.256 50.3948 9.256C50.0961 9.256 49.8295 9.32533 49.5948 9.464C49.3601 9.59733 49.1735 9.78667 49.0348 10.032C48.8961 10.2773 48.8268 10.5653 48.8268 10.896C48.8268 11.2213 48.8961 11.5093 49.0348 11.76C49.1735 12.0053 49.3601 12.1973 49.5948 12.336C49.8295 12.4693 50.0935 12.536 50.3868 12.536ZM52.902 13L54.678 10.696L54.67 10.976L52.982 8.8H53.622L55.006 10.6L54.766 10.592L56.15 8.8H56.774L55.07 11L55.078 10.696L56.87 13H56.222L54.758 11.08L54.982 11.112L53.542 13H52.902Z" fill="black"/>
<path d="M308.001 14V8.64L308.257 8.912H306.681V8.4H308.577V14H308.001ZM310.892 14V8.64L311.148 8.912H309.572V8.4H311.468V14H310.892Z" fill="black"/>
<path d="M145.272 12.06C145.096 12.06 144.944 11.996 144.816 11.868C144.696 11.74 144.636 11.584 144.636 11.4C144.636 11.208 144.696 11.052 144.816 10.932C144.944 10.812 145.096 10.752 145.272 10.752C145.448 10.752 145.596 10.812 145.716 10.932C145.844 11.052 145.908 11.208 145.908 11.4C145.908 11.584 145.844 11.74 145.716 11.868C145.596 11.996 145.448 12.06 145.272 12.06ZM147.815 12.06C147.639 12.06 147.487 11.996 147.359 11.868C147.239 11.74 147.179 11.584 147.179 11.4C147.179 11.208 147.239 11.052 147.359 10.932C147.487 10.812 147.639 10.752 147.815 10.752C147.991 10.752 148.139 10.812 148.259 10.932C148.387 11.052 148.451 11.208 148.451 11.4C148.451 11.584 148.387 11.74 148.259 11.868C148.139 11.996 147.991 12.06 147.815 12.06ZM150.358 12.06C150.182 12.06 150.03 11.996 149.902 11.868C149.782 11.74 149.722 11.584 149.722 11.4C149.722 11.208 149.782 11.052 149.902 10.932C150.03 10.812 150.182 10.752 150.358 10.752C150.534 10.752 150.682 10.812 150.802 10.932C150.93 11.052 150.994 11.208 150.994 11.4C150.994 11.584 150.93 11.74 150.802 11.868C150.682 11.996 150.534 12.06 150.358 12.06ZM152.901 12.06C152.725 12.06 152.573 11.996 152.445 11.868C152.325 11.74 152.265 11.584 152.265 11.4C152.265 11.208 152.325 11.052 152.445 10.932C152.573 10.812 152.725 10.752 152.901 10.752C153.077 10.752 153.225 10.812 153.345 10.932C153.473 11.052 153.537 11.208 153.537 11.4C153.537 11.584 153.473 11.74 153.345 11.868C153.225 11.996 153.077 12.06 152.901 12.06ZM155.444 12.06C155.268 12.06 155.116 11.996 154.988 11.868C154.868 11.74 154.808 11.584 154.808 11.4C154.808 11.208 154.868 11.052 154.988 10.932C155.116 10.812 155.268 10.752 155.444 10.752C155.62 10.752 155.768 10.812 155.888 10.932C156.016 11.052 156.08 11.208 156.08 11.4C156.08 11.584 156.016 11.74 155.888 11.868C155.768 11.996 155.62 12.06 155.444 12.06ZM157.987 12.06C157.811 12.06 157.659 11.996 157.531 11.868C157.411 11.74 157.351 11.584 157.351 11.4C157.351 11.208 157.411 11.052 157.531 10.932C157.659 10.812 157.811 10.752 157.987 10.752C158.163 10.752 158.311 10.812 158.431 10.932C158.559 11.052 158.623 11.208 158.623 11.4C158.623 11.584 158.559 11.74 158.431 11.868C158.311 11.996 158.163 12.06 157.987 12.06ZM160.53 12.06C160.354 12.06 160.202 11.996 160.074 11.868C159.954 11.74 159.894 11.584 159.894 11.4C159.894 11.208 159.954 11.052 160.074 10.932C160.202 10.812 160.354 10.752 160.53 10.752C160.706 10.752 160.854 10.812 160.974 10.932C161.102 11.052 161.166 11.208 161.166 11.4C161.166 11.584 161.102 11.74 160.974 11.868C160.854 11.996 160.706 12.06 160.53 12.06ZM163.073 12.06C162.897 12.06 162.745 11.996 162.617 11.868C162.497 11.74 162.437 11.584 162.437 11.4C162.437 11.208 162.497 11.052 162.617 10.932C162.745 10.812 162.897 10.752 163.073 10.752C163.249 10.752 163.397 10.812 163.517 10.932C163.645 11.052 163.709 11.208 163.709 11.4C163.709 11.584 163.645 11.74 163.517 11.868C163.397 11.996 163.249 12.06 163.073 12.06ZM165.616 12.06C165.44 12.06 165.288 11.996 165.16 11.868C165.04 11.74 164.98 11.584 164.98 11.4C164.98 11.208 165.04 11.052 165.16 10.932C165.288 10.812 165.44 10.752 165.616 10.752C165.792 10.752 165.94 10.812 166.06 10.932C166.188 11.052 166.252 11.208 166.252 11.4C166.252 11.584 166.188 11.74 166.06 11.868C165.94 11.996 165.792 12.06 165.616 12.06ZM168.159 12.06C167.983 12.06 167.831 11.996 167.703 11.868C167.583 11.74 167.523 11.584 167.523 11.4C167.523 11.208 167.583 11.052 167.703 10.932C167.831 10.812 167.983 10.752 168.159 10.752C168.335 10.752 168.483 10.812 168.603 10.932C168.731 11.052 168.795 11.208 168.795 11.4C168.795 11.584 168.731 11.74 168.603 11.868C168.483 11.996 168.335 12.06 168.159 12.06ZM170.702 12.06C170.526 12.06 170.374 11.996 170.246 11.868C170.126 11.74 170.066 11.584 170.066 11.4C170.066 11.208 170.126 11.052 170.246 10.932C170.374 10.812 170.526 10.752 170.702 10.752C170.878 10.752 171.026 10.812 171.146 10.932C171.274 11.052 171.338 11.208 171.338 11.4C171.338 11.584 171.274 11.74 171.146 11.868C171.026 11.996 170.878 12.06 170.702 12.06ZM173.245 12.06C173.069 12.06 172.917 11.996 172.789 11.868C172.669 11.74 172.609 11.584 172.609 11.4C172.609 11.208 172.669 11.052 172.789 10.932C172.917 10.812 173.069 10.752 173.245 10.752C173.421 10.752 173.569 10.812 173.689 10.932C173.817 11.052 173.881 11.208 173.881 11.4C173.881 11.584 173.817 11.74 173.689 11.868C173.569 11.996 173.421 12.06 173.245 12.06ZM175.788 12.06C175.612 12.06 175.46 11.996 175.332 11.868C175.212 11.74 175.152 11.584 175.152 11.4C175.152 11.208 175.212 11.052 175.332 10.932C175.46 10.812 175.612 10.752 175.788 10.752C175.964 10.752 176.112 10.812 176.232 10.932C176.36 11.052 176.424 11.208 176.424 11.4C176.424 11.584 176.36 11.74 176.232 11.868C176.112 11.996 175.964 12.06 175.788 12.06ZM178.331 12.06C178.155 12.06 178.003 11.996 177.875 11.868C177.755 11.74 177.695 11.584 177.695 11.4C177.695 11.208 177.755 11.052 177.875 10.932C178.003 10.812 178.155 10.752 178.331 10.752C178.507 10.752 178.655 10.812 178.775 10.932C178.903 11.052 178.967 11.208 178.967 11.4C178.967 11.584 178.903 11.74 178.775 11.868C178.655 11.996 178.507 12.06 178.331 12.06ZM180.874 12.06C180.698 12.06 180.546 11.996 180.418 11.868C180.298 11.74 180.238 11.584 180.238 11.4C180.238 11.208 180.298 11.052 180.418 10.932C180.546 10.812 180.698 10.752 180.874 10.752C181.05 10.752 181.198 10.812 181.318 10.932C181.446 11.052 181.51 11.208 181.51 11.4C181.51 11.584 181.446 11.74 181.318 11.868C181.198 11.996 181.05 12.06 180.874 12.06ZM183.417 12.06C183.241 12.06 183.089 11.996 182.961 11.868C182.841 11.74 182.781 11.584 182.781 11.4C182.781 11.208 182.841 11.052 182.961 10.932C183.089 10.812 183.241 10.752 183.417 10.752C183.593 10.752 183.741 10.812 183.861 10.932C183.989 11.052 184.053 11.208 184.053 11.4C184.053 11.584 183.989 11.74 183.861 11.868C183.741 11.996 183.593 12.06 183.417 12.06ZM185.96 12.06C185.784 12.06 185.632 11.996 185.504 11.868C185.384 11.74 185.324 11.584 185.324 11.4C185.324 11.208 185.384 11.052 185.504 10.932C185.632 10.812 185.784 10.752 185.96 10.752C186.136 10.752 186.284 10.812 186.404 10.932C186.532 11.052 186.596 11.208 186.596 11.4C186.596 11.584 186.532 11.74 186.404 11.868C186.284 11.996 186.136 12.06 185.96 12.06ZM188.502 12.06C188.326 12.06 188.174 11.996 188.046 11.868C187.926 11.74 187.866 11.584 187.866 11.4C187.866 11.208 187.926 11.052 188.046 10.932C188.174 10.812 188.326 10.752 188.502 10.752C188.678 10.752 188.826 10.812 188.946 10.932C189.074 11.052 189.138 11.208 189.138 11.4C189.138 11.584 189.074 11.74 188.946 11.868C188.826 11.996 188.678 12.06 188.502 12.06ZM191.045 12.06C190.869 12.06 190.717 11.996 190.589 11.868C190.469 11.74 190.409 11.584 190.409 11.4C190.409 11.208 190.469 11.052 190.589 10.932C190.717 10.812 190.869 10.752 191.045 10.752C191.221 10.752 191.369 10.812 191.489 10.932C191.617 11.052 191.681 11.208 191.681 11.4C191.681 11.584 191.617 11.74 191.489 11.868C191.369 11.996 191.221 12.06 191.045 12.06ZM193.588 12.06C193.412 12.06 193.26 11.996 193.132 11.868C193.012 11.74 192.952 11.584 192.952 11.4C192.952 11.208 193.012 11.052 193.132 10.932C193.26 10.812 193.412 10.752 193.588 10.752C193.764 10.752 193.912 10.812 194.032 10.932C194.16 11.052 194.224 11.208 194.224 11.4C194.224 11.584 194.16 11.74 194.032 11.868C193.912 11.996 193.764 12.06 193.588 12.06ZM196.131 12.06C195.955 12.06 195.803 11.996 195.675 11.868C195.555 11.74 195.495 11.584 195.495 11.4C195.495 11.208 195.555 11.052 195.675 10.932C195.803 10.812 195.955 10.752 196.131 10.752C196.307 10.752 196.455 10.812 196.575 10.932C196.703 11.052 196.767 11.208 196.767 11.4C196.767 11.584 196.703 11.74 196.575 11.868C196.455 11.996 196.307 12.06 196.131 12.06ZM198.674 12.06C198.498 12.06 198.346 11.996 198.218 11.868C198.098 11.74 198.038 11.584 198.038 11.4C198.038 11.208 198.098 11.052 198.218 10.932C198.346 10.812 198.498 10.752 198.674 10.752C198.85 10.752 198.998 10.812 199.118 10.932C199.246 11.052 199.31 11.208 199.31 11.4C199.31 11.584 199.246 11.74 199.118 11.868C198.998 11.996 198.85 12.06 198.674 12.06ZM201.217 12.06C201.041 12.06 200.889 11.996 200.761 11.868C200.641 11.74 200.581 11.584 200.581 11.4C200.581 11.208 200.641 11.052 200.761 10.932C200.889 10.812 201.041 10.752 201.217 10.752C201.393 10.752 201.541 10.812 201.661 10.932C201.789 11.052 201.853 11.208 201.853 11.4C201.853 11.584 201.789 11.74 201.661 11.868C201.541 11.996 201.393 12.06 201.217 12.06ZM203.76 12.06C203.584 12.06 203.432 11.996 203.304 11.868C203.184 11.74 203.124 11.584 203.124 11.4C203.124 11.208 203.184 11.052 203.304 10.932C203.432 10.812 203.584 10.752 203.76 10.752C203.936 10.752 204.084 10.812 204.204 10.932C204.332 11.052 204.396 11.208 204.396 11.4C204.396 11.584 204.332 11.74 204.204 11.868C204.084 11.996 203.936 12.06 203.76 12.06ZM206.303 12.06C206.127 12.06 205.975 11.996 205.847 11.868C205.727 11.74 205.667 11.584 205.667 11.4C205.667 11.208 205.727 11.052 205.847 10.932C205.975 10.812 206.127 10.752 206.303 10.752C206.479 10.752 206.627 10.812 206.747 10.932C206.875 11.052 206.939 11.208 206.939 11.4C206.939 11.584 206.875 11.74 206.747 11.868C206.627 11.996 206.479 12.06 206.303 12.06ZM208.846 12.06C208.67 12.06 208.518 11.996 208.39 11.868C208.27 11.74 208.21 11.584 208.21 11.4C208.21 11.208 208.27 11.052 208.39 10.932C208.518 10.812 208.67 10.752 208.846 10.752C209.022 10.752 209.17 10.812 209.29 10.932C209.418 11.052 209.482 11.208 209.482 11.4C209.482 11.584 209.418 11.74 209.29 11.868C209.17 11.996 209.022 12.06 208.846 12.06ZM211.389 12.06C211.213 12.06 211.061 11.996 210.933 11.868C210.813 11.74 210.753 11.584 210.753 11.4C210.753 11.208 210.813 11.052 210.933 10.932C211.061 10.812 211.213 10.752 211.389 10.752C211.565 10.752 211.713 10.812 211.833 10.932C211.961 11.052 212.025 11.208 212.025 11.4C212.025 11.584 211.961 11.74 211.833 11.868C211.713 11.996 211.565 12.06 211.389 12.06ZM213.932 12.06C213.756 12.06 213.604 11.996 213.476 11.868C213.356 11.74 213.296 11.584 213.296 11.4C213.296 11.208 213.356 11.052 213.476 10.932C213.604 10.812 213.756 10.752 213.932 10.752C214.108 10.752 214.256 10.812 214.376 10.932C214.504 11.052 214.568 11.208 214.568 11.4C214.568 11.584 214.504 11.74 214.376 11.868C214.256 11.996 214.108 12.06 213.932 12.06ZM216.475 12.06C216.299 12.06 216.147 11.996 216.019 11.868C215.899 11.74 215.839 11.584 215.839 11.4C215.839 11.208 215.899 11.052 216.019 10.932C216.147 10.812 216.299 10.752 216.475 10.752C216.651 10.752 216.799 10.812 216.919 10.932C217.047 11.052 217.111 11.208 217.111 11.4C217.111 11.584 217.047 11.74 216.919 11.868C216.799 11.996 216.651 12.06 216.475 12.06ZM219.018 12.06C218.842 12.06 218.69 11.996 218.562 11.868C218.442 11.74 218.382 11.584 218.382 11.4C218.382 11.208 218.442 11.052 218.562 10.932C218.69 10.812 218.842 10.752 219.018 10.752C219.194 10.752 219.342 10.812 219.462 10.932C219.59 11.052 219.654 11.208 219.654 11.4C219.654 11.584 219.59 11.74 219.462 11.868C219.342 11.996 219.194 12.06 219.018 12.06ZM221.561 12.06C221.385 12.06 221.233 11.996 221.105 11.868C220.985 11.74 220.925 11.584 220.925 11.4C220.925 11.208 220.985 11.052 221.105 10.932C221.233 10.812 221.385 10.752 221.561 10.752C221.737 10.752 221.885 10.812 222.005 10.932C222.133 11.052 222.197 11.208 222.197 11.4C222.197 11.584 222.133 11.74 222.005 11.868C221.885 11.996 221.737 12.06 221.561 12.06ZM224.104 12.06C223.928 12.06 223.776 11.996 223.648 11.868C223.528 11.74 223.468 11.584 223.468 11.4C223.468 11.208 223.528 11.052 223.648 10.932C223.776 10.812 223.928 10.752 224.104 10.752C224.28 10.752 224.428 10.812 224.548 10.932C224.676 11.052 224.74 11.208 224.74 11.4C224.74 11.584 224.676 11.74 224.548 11.868C224.428 11.996 224.28 12.06 224.104 12.06ZM226.647 12.06C226.471 12.06 226.319 11.996 226.191 11.868C226.071 11.74 226.011 11.584 226.011 11.4C226.011 11.208 226.071 11.052 226.191 10.932C226.319 10.812 226.471 10.752 226.647 10.752C226.823 10.752 226.971 10.812 227.091 10.932C227.219 11.052 227.283 11.208 227.283 11.4C227.283 11.584 227.219 11.74 227.091 11.868C226.971 11.996 226.823 12.06 226.647 12.06ZM229.19 12.06C229.014 12.06 228.862 11.996 228.734 11.868C228.614 11.74 228.554 11.584 228.554 11.4C228.554 11.208 228.614 11.052 228.734 10.932C228.862 10.812 229.014 10.752 229.19 10.752C229.366 10.752 229.514 10.812 229.634 10.932C229.762 11.052 229.826 11.208 229.826 11.4C229.826 11.584 229.762 11.74 229.634 11.868C229.514 11.996 229.366 12.06 229.19 12.06ZM231.733 12.06C231.557 12.06 231.405 11.996 231.277 11.868C231.157 11.74 231.097 11.584 231.097 11.4C231.097 11.208 231.157 11.052 231.277 10.932C231.405 10.812 231.557 10.752 231.733 10.752C231.909 10.752 232.057 10.812 232.177 10.932C232.305 11.052 232.369 11.208 232.369 11.4C232.369 11.584 232.305 11.74 232.177 11.868C232.057 11.996 231.909 12.06 231.733 12.06ZM234.276 12.06C234.1 12.06 233.948 11.996 233.82 11.868C233.7 11.74 233.64 11.584 233.64 11.4C233.64 11.208 233.7 11.052 233.82 10.932C233.948 10.812 234.1 10.752 234.276 10.752C234.452 10.752 234.6 10.812 234.72 10.932C234.848 11.052 234.912 11.208 234.912 11.4C234.912 11.584 234.848 11.74 234.72 11.868C234.6 11.996 234.452 12.06 234.276 12.06ZM236.819 12.06C236.643 12.06 236.491 11.996 236.363 11.868C236.243 11.74 236.183 11.584 236.183 11.4C236.183 11.208 236.243 11.052 236.363 10.932C236.491 10.812 236.643 10.752 236.819 10.752C236.995 10.752 237.143 10.812 237.263 10.932C237.391 11.052 237.455 11.208 237.455 11.4C237.455 11.584 237.391 11.74 237.263 11.868C237.143 11.996 236.995 12.06 236.819 12.06ZM239.362 12.06C239.186 12.06 239.034 11.996 238.906 11.868C238.786 11.74 238.726 11.584 238.726 11.4C238.726 11.208 238.786 11.052 238.906 10.932C239.034 10.812 239.186 10.752 239.362 10.752C239.538 10.752 239.686 10.812 239.806 10.932C239.934 11.052 239.998 11.208 239.998 11.4C239.998 11.584 239.934 11.74 239.806 11.868C239.686 11.996 239.538 12.06 239.362 12.06ZM241.905 12.06C241.729 12.06 241.577 11.996 241.449 11.868C241.329 11.74 241.269 11.584 241.269 11.4C241.269 11.208 241.329 11.052 241.449 10.932C241.577 10.812 241.729 10.752 241.905 10.752C242.081 10.752 242.229 10.812 242.349 10.932C242.477 11.052 242.541 11.208 242.541 11.4C242.541 11.584 242.477 11.74 242.349 11.868C242.229 11.996 242.081 12.06 241.905 12.06ZM244.448 12.06C244.272 12.06 244.12 11.996 243.992 11.868C243.872 11.74 243.812 11.584 243.812 11.4C243.812 11.208 243.872 11.052 243.992 10.932C244.12 10.812 244.272 10.752 244.448 10.752C244.624 10.752 244.772 10.812 244.892 10.932C245.02 11.052 245.084 11.208 245.084 11.4C245.084 11.584 245.02 11.74 244.892 11.868C244.772 11.996 244.624 12.06 244.448 12.06ZM246.991 12.06C246.815 12.06 246.663 11.996 246.535 11.868C246.415 11.74 246.355 11.584 246.355 11.4C246.355 11.208 246.415 11.052 246.535 10.932C246.663 10.812 246.815 10.752 246.991 10.752C247.167 10.752 247.315 10.812 247.435 10.932C247.563 11.052 247.627 11.208 247.627 11.4C247.627 11.584 247.563 11.74 247.435 11.868C247.315 11.996 247.167 12.06 246.991 12.06ZM249.534 12.06C249.358 12.06 249.206 11.996 249.078 11.868C248.958 11.74 248.898 11.584 248.898 11.4C248.898 11.208 248.958 11.052 249.078 10.932C249.206 10.812 249.358 10.752 249.534 10.752C249.71 10.752 249.858 10.812 249.978 10.932C250.106 11.052 250.17 11.208 250.17 11.4C250.17 11.584 250.106 11.74 249.978 11.868C249.858 11.996 249.71 12.06 249.534 12.06ZM252.077 12.06C251.901 12.06 251.749 11.996 251.621 11.868C251.501 11.74 251.441 11.584 251.441 11.4C251.441 11.208 251.501 11.052 251.621 10.932C251.749 10.812 251.901 10.752 252.077 10.752C252.253 10.752 252.401 10.812 252.521 10.932C252.649 11.052 252.713 11.208 252.713 11.4C252.713 11.584 252.649 11.74 252.521 11.868C252.401 11.996 252.253 12.06 252.077 12.06ZM254.62 12.06C254.444 12.06 254.292 11.996 254.164 11.868C254.044 11.74 253.984 11.584 253.984 11.4C253.984 11.208 254.044 11.052 254.164 10.932C254.292 10.812 254.444 10.752 254.62 10.752C254.796 10.752 254.944 10.812 255.064 10.932C255.192 11.052 255.256 11.208 255.256 11.4C255.256 11.584 255.192 11.74 255.064 11.868C254.944 11.996 254.796 12.06 254.62 12.06ZM257.163 12.06C256.987 12.06 256.835 11.996 256.707 11.868C256.587 11.74 256.527 11.584 256.527 11.4C256.527 11.208 256.587 11.052 256.707 10.932C256.835 10.812 256.987 10.752 257.163 10.752C257.339 10.752 257.487 10.812 257.607 10.932C257.735 11.052 257.799 11.208 257.799 11.4C257.799 11.584 257.735 11.74 257.607 11.868C257.487 11.996 257.339 12.06 257.163 12.06ZM259.706 12.06C259.53 12.06 259.378 11.996 259.25 11.868C259.13 11.74 259.07 11.584 259.07 11.4C259.07 11.208 259.13 11.052 259.25 10.932C259.378 10.812 259.53 10.752 259.706 10.752C259.882 10.752 260.03 10.812 260.15 10.932C260.278 11.052 260.342 11.208 260.342 11.4C260.342 11.584 260.278 11.74 260.15 11.868C260.03 11.996 259.882 12.06 259.706 12.06ZM262.249 12.06C262.073 12.06 261.921 11.996 261.793 11.868C261.673 11.74 261.613 11.584 261.613 11.4C261.613 11.208 261.673 11.052 261.793 10.932C261.921 10.812 262.073 10.752 262.249 10.752C262.425 10.752 262.573 10.812 262.693 10.932C262.821 11.052 262.885 11.208 262.885 11.4C262.885 11.584 262.821 11.74 262.693 11.868C262.573 11.996 262.425 12.06 262.249 12.06ZM264.792 12.06C264.616 12.06 264.464 11.996 264.336 11.868C264.216 11.74 264.156 11.584 264.156 11.4C264.156 11.208 264.216 11.052 264.336 10.932C264.464 10.812 264.616 10.752 264.792 10.752C264.968 10.752 265.116 10.812 265.236 10.932C265.364 11.052 265.428 11.208 265.428 11.4C265.428 11.584 265.364 11.74 265.236 11.868C265.116 11.996 264.968 12.06 264.792 12.06ZM267.335 12.06C267.159 12.06 267.007 11.996 266.879 11.868C266.759 11.74 266.699 11.584 266.699 11.4C266.699 11.208 266.759 11.052 266.879 10.932C267.007 10.812 267.159 10.752 267.335 10.752C267.511 10.752 267.659 10.812 267.779 10.932C267.907 11.052 267.971 11.208 267.971 11.4C267.971 11.584 267.907 11.74 267.779 11.868C267.659 11.996 267.511 12.06 267.335 12.06ZM269.877 12.06C269.701 12.06 269.549 11.996 269.421 11.868C269.301 11.74 269.241 11.584 269.241 11.4C269.241 11.208 269.301 11.052 269.421 10.932C269.549 10.812 269.701 10.752 269.877 10.752C270.053 10.752 270.201 10.812 270.321 10.932C270.449 11.052 270.513 11.208 270.513 11.4C270.513 11.584 270.449 11.74 270.321 11.868C270.201 11.996 270.053 12.06 269.877 12.06ZM272.42 12.06C272.244 12.06 272.092 11.996 271.964 11.868C271.844 11.74 271.784 11.584 271.784 11.4C271.784 11.208 271.844 11.052 271.964 10.932C272.092 10.812 272.244 10.752 272.42 10.752C272.596 10.752 272.744 10.812 272.864 10.932C272.992 11.052 273.056 11.208 273.056 11.4C273.056 11.584 272.992 11.74 272.864 11.868C272.744 11.996 272.596 12.06 272.42 12.06ZM274.963 12.06C274.787 12.06 274.635 11.996 274.507 11.868C274.387 11.74 274.327 11.584 274.327 11.4C274.327 11.208 274.387 11.052 274.507 10.932C274.635 10.812 274.787 10.752 274.963 10.752C275.139 10.752 275.287 10.812 275.407 10.932C275.535 11.052 275.599 11.208 275.599 11.4C275.599 11.584 275.535 11.74 275.407 11.868C275.287 11.996 275.139 12.06 274.963 12.06ZM277.506 12.06C277.33 12.06 277.178 11.996 277.05 11.868C276.93 11.74 276.87 11.584 276.87 11.4C276.87 11.208 276.93 11.052 277.05 10.932C277.178 10.812 277.33 10.752 277.506 10.752C277.682 10.752 277.83 10.812 277.95 10.932C278.078 11.052 278.142 11.208 278.142 11.4C278.142 11.584 278.078 11.74 277.95 11.868C277.83 11.996 277.682 12.06 277.506 12.06ZM280.049 12.06C279.873 12.06 279.721 11.996 279.593 11.868C279.473 11.74 279.413 11.584 279.413 11.4C279.413 11.208 279.473 11.052 279.593 10.932C279.721 10.812 279.873 10.752 280.049 10.752C280.225 10.752 280.373 10.812 280.493 10.932C280.621 11.052 280.685 11.208 280.685 11.4C280.685 11.584 280.621 11.74 280.493 11.868C280.373 11.996 280.225 12.06 280.049 12.06ZM282.592 12.06C282.416 12.06 282.264 11.996 282.136 11.868C282.016 11.74 281.956 11.584 281.956 11.4C281.956 11.208 282.016 11.052 282.136 10.932C282.264 10.812 282.416 10.752 282.592 10.752C282.768 10.752 282.916 10.812 283.036 10.932C283.164 11.052 283.228 11.208 283.228 11.4C283.228 11.584 283.164 11.74 283.036 11.868C282.916 11.996 282.768 12.06 282.592 12.06ZM285.135 12.06C284.959 12.06 284.807 11.996 284.679 11.868C284.559 11.74 284.499 11.584 284.499 11.4C284.499 11.208 284.559 11.052 284.679 10.932C284.807 10.812 284.959 10.752 285.135 10.752C285.311 10.752 285.459 10.812 285.579 10.932C285.707 11.052 285.771 11.208 285.771 11.4C285.771 11.584 285.707 11.74 285.579 11.868C285.459 11.996 285.311 12.06 285.135 12.06ZM287.678 12.06C287.502 12.06 287.35 11.996 287.222 11.868C287.102 11.74 287.042 11.584 287.042 11.4C287.042 11.208 287.102 11.052 287.222 10.932C287.35 10.812 287.502 10.752 287.678 10.752C287.854 10.752 288.002 10.812 288.122 10.932C288.25 11.052 288.314 11.208 288.314 11.4C288.314 11.584 288.25 11.74 288.122 11.868C288.002 11.996 287.854 12.06 287.678 12.06ZM290.221 12.06C290.045 12.06 289.893 11.996 289.765 11.868C289.645 11.74 289.585 11.584 289.585 11.4C289.585 11.208 289.645 11.052 289.765 10.932C289.893 10.812 290.045 10.752 290.221 10.752C290.397 10.752 290.545 10.812 290.665 10.932C290.793 11.052 290.857 11.208 290.857 11.4C290.857 11.584 290.793 11.74 290.665 11.868C290.545 11.996 290.397 12.06 290.221 12.06Z" fill="black"/>
</svg>
