<svg width="94" height="10" viewBox="0 0 94 10" fill="none" xmlns="http://www.w3.org/2000/svg">
<path d="M2.8267 1.81889V2.52912H0V1.81889H2.8267ZM0.823864 0.512074H1.66193V5.71094C1.66193 5.94768 1.69626 6.12524 1.76491 6.24361C1.83594 6.35961 1.9259 6.43774 2.0348 6.47798C2.14607 6.51586 2.26326 6.5348 2.38636 6.5348C2.47869 6.5348 2.55445 6.53007 2.61364 6.5206C2.67282 6.50876 2.72017 6.49929 2.75568 6.49219L2.92614 7.24503C2.86932 7.26634 2.79001 7.28764 2.68821 7.30895C2.58641 7.33262 2.45739 7.34446 2.30114 7.34446C2.06439 7.34446 1.83239 7.29356 1.60511 7.19176C1.38021 7.08996 1.19318 6.9349 1.04403 6.72656C0.897254 6.51823 0.823864 6.25545 0.823864 5.93821V0.512074ZM6.3157 7.38707C5.79013 7.38707 5.33677 7.27107 4.95561 7.03906C4.57682 6.80469 4.28445 6.47798 4.07848 6.05895C3.87488 5.63755 3.77308 5.14749 3.77308 4.58878C3.77308 4.03007 3.87488 3.53764 4.07848 3.11151C4.28445 2.683 4.5709 2.3492 4.93786 2.11009C5.30717 1.86861 5.73804 1.74787 6.23047 1.74787C6.51456 1.74787 6.7951 1.79522 7.07209 1.88991C7.34908 1.98461 7.60121 2.13849 7.82848 2.35156C8.05575 2.56226 8.23686 2.84162 8.3718 3.18963C8.50675 3.53764 8.57422 3.96615 8.57422 4.47514V4.83026H4.36967V4.10582H7.72195C7.72195 3.79806 7.66039 3.52344 7.53729 3.28196C7.41655 3.04048 7.24373 2.84991 7.01882 2.71023C6.79628 2.57055 6.5335 2.50071 6.23047 2.50071C5.89666 2.50071 5.60784 2.58357 5.36399 2.74929C5.12251 2.91264 4.93667 3.12571 4.80646 3.38849C4.67625 3.65128 4.61115 3.933 4.61115 4.23366V4.71662C4.61115 5.12855 4.68217 5.47775 4.82422 5.7642C4.96863 6.0483 5.16868 6.26491 5.42436 6.41406C5.68004 6.56084 5.97715 6.63423 6.3157 6.63423C6.53587 6.63423 6.73473 6.60346 6.91229 6.5419C7.09221 6.47798 7.24728 6.38329 7.37749 6.25781C7.50769 6.12997 7.60831 5.97135 7.67933 5.78196L8.48899 6.00923C8.40376 6.28385 8.26054 6.52533 8.0593 6.73366C7.85807 6.93963 7.60949 7.10062 7.31357 7.21662C7.01764 7.33026 6.68501 7.38707 6.3157 7.38707ZM9.84908 7.27344V1.81889H10.6587V2.64276H10.7156C10.815 2.37287 10.9949 2.15388 11.2553 1.9858C11.5157 1.81771 11.8093 1.73366 12.136 1.73366C12.1976 1.73366 12.2745 1.73485 12.3668 1.73722C12.4592 1.73958 12.529 1.74313 12.5763 1.74787V2.60014C12.5479 2.59304 12.4828 2.58239 12.381 2.56818C12.2816 2.55161 12.1763 2.54332 12.065 2.54332C11.7998 2.54332 11.5631 2.59896 11.3548 2.71023C11.1488 2.81913 10.9854 2.97064 10.8647 3.16477C10.7463 3.35653 10.6871 3.57552 10.6871 3.82173V7.27344H9.84908ZM13.5698 7.27344V1.81889H14.3794V2.64276H14.4363C14.5357 2.37287 14.7156 2.15388 14.976 1.9858C15.2364 1.81771 15.53 1.73366 15.8567 1.73366C15.9183 1.73366 15.9952 1.73485 16.0875 1.73722C16.1799 1.73958 16.2497 1.74313 16.2971 1.74787V2.60014C16.2686 2.59304 16.2035 2.58239 16.1017 2.56818C16.0023 2.55161 15.897 2.54332 15.7857 2.54332C15.5205 2.54332 15.2838 2.59896 15.0755 2.71023C14.8695 2.81913 14.7061 2.97064 14.5854 3.16477C14.467 3.35653 14.4078 3.57552 14.4078 3.82173V7.27344H13.5698ZM18.8956 7.40128C18.55 7.40128 18.2363 7.33617 17.9545 7.20597C17.6728 7.07339 17.4491 6.88281 17.2834 6.63423C17.1177 6.38329 17.0348 6.08026 17.0348 5.72514C17.0348 5.41264 17.0964 5.15933 17.2195 4.9652C17.3426 4.7687 17.5071 4.61482 17.7131 4.50355C17.919 4.39228 18.1463 4.30942 18.3949 4.25497C18.6458 4.19815 18.898 4.15317 19.1513 4.12003C19.4827 4.07741 19.7514 4.04545 19.9574 4.02415C20.1657 4.00047 20.3172 3.96141 20.4119 3.90696C20.509 3.85251 20.5575 3.75781 20.5575 3.62287V3.59446C20.5575 3.24408 20.4616 2.97183 20.2699 2.7777C20.0805 2.58357 19.7929 2.48651 19.407 2.48651C19.0069 2.48651 18.6932 2.5741 18.4659 2.74929C18.2386 2.92448 18.0788 3.11151 17.9865 3.31037L17.1911 3.02628C17.3331 2.69484 17.5225 2.43679 17.7592 2.25213C17.9983 2.0651 18.2588 1.9349 18.5405 1.86151C18.8246 1.78575 19.1039 1.74787 19.3786 1.74787C19.5537 1.74787 19.755 1.76918 19.9822 1.81179C20.2119 1.85204 20.4332 1.93608 20.6463 2.06392C20.8617 2.19176 21.0405 2.38471 21.1825 2.64276C21.3246 2.9008 21.3956 3.24645 21.3956 3.67969V7.27344H20.5575V6.5348H20.5149C20.4581 6.65317 20.3634 6.77983 20.2308 6.91477C20.0982 7.04972 19.9219 7.16454 19.7017 7.25923C19.4815 7.35393 19.2128 7.40128 18.8956 7.40128ZM19.0234 6.64844C19.3549 6.64844 19.6342 6.58333 19.8615 6.45312C20.0911 6.32292 20.264 6.15483 20.38 5.94886C20.4983 5.7429 20.5575 5.52628 20.5575 5.29901V4.53196C20.522 4.57457 20.4439 4.61364 20.3232 4.64915C20.2048 4.68229 20.0675 4.71188 19.9112 4.73793C19.7573 4.7616 19.607 4.78291 19.4602 4.80185C19.3158 4.81842 19.1986 4.83262 19.1087 4.84446C18.8909 4.87287 18.6873 4.91903 18.4979 4.98295C18.3108 5.04451 18.1593 5.13802 18.0433 5.26349C17.9297 5.3866 17.8729 5.55469 17.8729 5.76776C17.8729 6.05895 17.9806 6.27912 18.196 6.42827C18.4138 6.57505 18.6896 6.64844 19.0234 6.64844ZM25.2974 1.81889V2.52912H22.4707V1.81889H25.2974ZM23.2946 0.512074H24.1326V5.71094C24.1326 5.94768 24.167 6.12524 24.2356 6.24361C24.3066 6.35961 24.3966 6.43774 24.5055 6.47798C24.6168 6.51586 24.734 6.5348 24.8571 6.5348C24.9494 6.5348 25.0252 6.53007 25.0843 6.5206C25.1435 6.50876 25.1909 6.49929 25.2264 6.49219L25.3968 7.24503C25.34 7.26634 25.2607 7.28764 25.1589 7.30895C25.0571 7.33262 24.9281 7.34446 24.7718 7.34446C24.5351 7.34446 24.3031 7.29356 24.0758 7.19176C23.8509 7.08996 23.6639 6.9349 23.5147 6.72656C23.368 6.51823 23.2946 6.25545 23.2946 5.93821V0.512074ZM28.7864 7.38707C28.2608 7.38707 27.8075 7.27107 27.4263 7.03906C27.0475 6.80469 26.7551 6.47798 26.5492 6.05895C26.3456 5.63755 26.2438 5.14749 26.2438 4.58878C26.2438 4.03007 26.3456 3.53764 26.5492 3.11151C26.7551 2.683 27.0416 2.3492 27.4086 2.11009C27.7779 1.86861 28.2087 1.74787 28.7012 1.74787C28.9853 1.74787 29.2658 1.79522 29.5428 1.88991C29.8198 1.98461 30.0719 2.13849 30.2992 2.35156C30.5265 2.56226 30.7076 2.84162 30.8425 3.18963C30.9775 3.53764 31.0449 3.96615 31.0449 4.47514V4.83026H26.8404V4.10582H30.1926C30.1926 3.79806 30.1311 3.52344 30.008 3.28196C29.8873 3.04048 29.7144 2.84991 29.4895 2.71023C29.267 2.57055 29.0042 2.50071 28.7012 2.50071C28.3674 2.50071 28.0785 2.58357 27.8347 2.74929C27.5932 2.91264 27.4074 3.12571 27.2772 3.38849C27.147 3.65128 27.0819 3.933 27.0819 4.23366V4.71662C27.0819 5.12855 27.1529 5.47775 27.2949 5.7642C27.4393 6.0483 27.6394 6.26491 27.8951 6.41406C28.1507 6.56084 28.4479 6.63423 28.7864 6.63423C29.0066 6.63423 29.2054 6.60346 29.383 6.5419C29.5629 6.47798 29.718 6.38329 29.8482 6.25781C29.9784 6.12997 30.079 5.97135 30.15 5.78196L30.9597 6.00923C30.8745 6.28385 30.7312 6.52533 30.53 6.73366C30.3288 6.93963 30.0802 7.10062 29.7843 7.21662C29.4883 7.33026 29.1557 7.38707 28.7864 7.38707ZM34.5357 7.38707C34.0243 7.38707 33.584 7.26634 33.2147 7.02486C32.8453 6.78338 32.5613 6.45076 32.3624 6.02699C32.1635 5.60322 32.0641 5.11908 32.0641 4.57457C32.0641 4.0206 32.1659 3.53172 32.3695 3.10795C32.5755 2.68182 32.8619 2.3492 33.2289 2.11009C33.5982 1.86861 34.0291 1.74787 34.5215 1.74787C34.905 1.74787 35.2507 1.81889 35.5584 1.96094C35.8662 2.10298 36.1183 2.30185 36.3148 2.55753C36.5113 2.81321 36.6332 3.11151 36.6806 3.45241H35.8425C35.7786 3.20384 35.6365 2.98366 35.4164 2.7919C35.1986 2.59777 34.905 2.50071 34.5357 2.50071C34.209 2.50071 33.9225 2.58594 33.6763 2.75639C33.4325 2.92448 33.2419 3.16241 33.1046 3.47017C32.9696 3.77557 32.9022 4.13423 32.9022 4.54616C32.9022 4.96757 32.9685 5.33452 33.101 5.64702C33.236 5.95952 33.4254 6.20218 33.6692 6.375C33.9154 6.54782 34.2042 6.63423 34.5357 6.63423C34.7535 6.63423 34.9512 6.59635 35.1287 6.5206C35.3063 6.44484 35.4566 6.33594 35.5797 6.19389C35.7028 6.05185 35.7904 5.88139 35.8425 5.68253H36.6806C36.6332 6.0045 36.516 6.29451 36.329 6.55256C36.1444 6.80824 35.8993 7.01184 35.5939 7.16335C35.2909 7.3125 34.9382 7.38707 34.5357 7.38707ZM38.7438 3.99219V7.27344H37.9057V0.000710011H38.7438V2.67116H38.8148C38.9426 2.38944 39.1344 2.16572 39.3901 2C39.6481 1.83191 39.9914 1.74787 40.4199 1.74787C40.7916 1.74787 41.1171 1.82244 41.3965 1.97159C41.6758 2.11837 41.8925 2.34446 42.0463 2.64986C42.2026 2.95289 42.2807 3.33878 42.2807 3.80753V7.27344H41.4426V3.86435C41.4426 3.43111 41.3302 3.09612 41.1053 2.85938C40.8828 2.62027 40.5738 2.50071 40.1784 2.50071C39.9038 2.50071 39.6576 2.55871 39.4398 2.67472C39.2244 2.79072 39.0539 2.95999 38.9284 3.18253C38.8053 3.40507 38.7438 3.67495 38.7438 3.99219ZM43.8139 9.31889V1.81889H44.6236V2.68537H44.723C44.7846 2.59067 44.8698 2.46993 44.9787 2.32315C45.09 2.17401 45.2486 2.04143 45.4545 1.92543C45.6629 1.80705 45.9446 1.74787 46.2997 1.74787C46.759 1.74787 47.1638 1.86269 47.5142 2.09233C47.8646 2.32197 48.138 2.64749 48.3345 3.06889C48.531 3.49029 48.6293 3.98745 48.6293 4.56037C48.6293 5.13802 48.531 5.63873 48.3345 6.0625C48.138 6.4839 47.8658 6.81061 47.5178 7.04261C47.1697 7.27225 46.7685 7.38707 46.3139 7.38707C45.9635 7.38707 45.683 7.32907 45.4723 7.21307C45.2616 7.0947 45.0994 6.96094 44.9858 6.81179C44.8722 6.66027 44.7846 6.5348 44.723 6.43537H44.652V9.31889H43.8139ZM44.6378 4.54616C44.6378 4.9581 44.6982 5.3215 44.8189 5.63636C44.9396 5.94886 45.116 6.19389 45.348 6.37145C45.58 6.54664 45.8641 6.63423 46.2003 6.63423C46.5507 6.63423 46.843 6.5419 47.0774 6.35724C47.3142 6.17022 47.4917 5.91927 47.6101 5.6044C47.7308 5.28717 47.7912 4.93442 47.7912 4.54616C47.7912 4.16264 47.732 3.817 47.6136 3.50923C47.4976 3.1991 47.3213 2.95407 47.0845 2.77415C46.8501 2.59186 46.5554 2.50071 46.2003 2.50071C45.8594 2.50071 45.5729 2.58712 45.3409 2.75994C45.1089 2.9304 44.9337 3.16951 44.8153 3.47727C44.697 3.78267 44.6378 4.13897 44.6378 4.54616ZM51.5128 7.40128C51.1671 7.40128 50.8535 7.33617 50.5717 7.20597C50.29 7.07339 50.0663 6.88281 49.9006 6.63423C49.7348 6.38329 49.652 6.08026 49.652 5.72514C49.652 5.41264 49.7135 5.15933 49.8366 4.9652C49.9598 4.7687 50.1243 4.61482 50.3303 4.50355C50.5362 4.39228 50.7635 4.30942 51.0121 4.25497C51.263 4.19815 51.5152 4.15317 51.7685 4.12003C52.0999 4.07741 52.3686 4.04545 52.5746 4.02415C52.7829 4.00047 52.9344 3.96141 53.0291 3.90696C53.1262 3.85251 53.1747 3.75781 53.1747 3.62287V3.59446C53.1747 3.24408 53.0788 2.97183 52.8871 2.7777C52.6977 2.58357 52.41 2.48651 52.0241 2.48651C51.6241 2.48651 51.3104 2.5741 51.0831 2.74929C50.8558 2.92448 50.696 3.11151 50.6037 3.31037L49.8082 3.02628C49.9503 2.69484 50.1397 2.43679 50.3764 2.25213C50.6155 2.0651 50.8759 1.9349 51.1577 1.86151C51.4418 1.78575 51.7211 1.74787 51.9957 1.74787C52.1709 1.74787 52.3722 1.76918 52.5994 1.81179C52.8291 1.85204 53.0504 1.93608 53.2635 2.06392C53.4789 2.19176 53.6577 2.38471 53.7997 2.64276C53.9418 2.9008 54.0128 3.24645 54.0128 3.67969V7.27344H53.1747V6.5348H53.1321C53.0753 6.65317 52.9806 6.77983 52.848 6.91477C52.7154 7.04972 52.5391 7.16454 52.3189 7.25923C52.0987 7.35393 51.83 7.40128 51.5128 7.40128ZM51.6406 6.64844C51.9721 6.64844 52.2514 6.58333 52.4787 6.45312C52.7083 6.32292 52.8812 6.15483 52.9972 5.94886C53.1155 5.7429 53.1747 5.52628 53.1747 5.29901V4.53196C53.1392 4.57457 53.0611 4.61364 52.9403 4.64915C52.822 4.68229 52.6847 4.71188 52.5284 4.73793C52.3745 4.7616 52.2242 4.78291 52.0774 4.80185C51.933 4.81842 51.8158 4.83262 51.7259 4.84446C51.508 4.87287 51.3045 4.91903 51.1151 4.98295C50.928 5.04451 50.7765 5.13802 50.6605 5.26349C50.5469 5.3866 50.4901 5.55469 50.4901 5.76776C50.4901 6.05895 50.5978 6.27912 50.8132 6.42827C51.031 6.57505 51.3068 6.64844 51.6406 6.64844ZM57.7583 7.38707C57.247 7.38707 56.8066 7.26634 56.4373 7.02486C56.068 6.78338 55.7839 6.45076 55.585 6.02699C55.3862 5.60322 55.2868 5.11908 55.2868 4.57457C55.2868 4.0206 55.3886 3.53172 55.5922 3.10795C55.7981 2.68182 56.0846 2.3492 56.4515 2.11009C56.8208 1.86861 57.2517 1.74787 57.7441 1.74787C58.1277 1.74787 58.4733 1.81889 58.7811 1.96094C59.0888 2.10298 59.341 2.30185 59.5375 2.55753C59.734 2.81321 59.8559 3.11151 59.9032 3.45241H59.0652C59.0012 3.20384 58.8592 2.98366 58.639 2.7919C58.4212 2.59777 58.1277 2.50071 57.7583 2.50071C57.4316 2.50071 57.1452 2.58594 56.899 2.75639C56.6551 2.92448 56.4645 3.16241 56.3272 3.47017C56.1923 3.77557 56.1248 4.13423 56.1248 4.54616C56.1248 4.96757 56.1911 5.33452 56.3237 5.64702C56.4586 5.95952 56.648 6.20218 56.8919 6.375C57.1381 6.54782 57.4269 6.63423 57.7583 6.63423C57.9761 6.63423 58.1738 6.59635 58.3514 6.5206C58.5289 6.44484 58.6793 6.33594 58.8024 6.19389C58.9255 6.05185 59.0131 5.88139 59.0652 5.68253H59.9032C59.8559 6.0045 59.7387 6.29451 59.5517 6.55256C59.367 6.80824 59.122 7.01184 58.8166 7.16335C58.5136 7.3125 58.1608 7.38707 57.7583 7.38707ZM61.9096 5.2848L61.8954 4.24787H62.0659L64.4522 1.81889H65.4892L62.9466 4.38991H62.8755L61.9096 5.2848ZM61.1284 7.27344V0.000710011H61.9664V7.27344H61.1284ZM64.5943 7.27344L62.4636 4.57457L63.0602 3.99219L65.6596 7.27344H64.5943ZM70.4315 3.04048L69.6786 3.25355C69.6313 3.12808 69.5614 3.00616 69.4691 2.88778C69.3791 2.76705 69.256 2.66761 69.0998 2.58949C68.9435 2.51136 68.7435 2.4723 68.4996 2.4723C68.1658 2.4723 67.8877 2.54924 67.6651 2.70312C67.445 2.85464 67.3349 3.04759 67.3349 3.28196C67.3349 3.49029 67.4106 3.65483 67.5621 3.77557C67.7137 3.89631 67.9504 3.99692 68.2724 4.07741L69.082 4.27628C69.5697 4.39465 69.9331 4.57576 70.1722 4.8196C70.4113 5.06108 70.5309 5.3724 70.5309 5.75355C70.5309 6.06605 70.4409 6.34541 70.261 6.59162C70.0835 6.83783 69.8349 7.03196 69.5153 7.17401C69.1957 7.31605 68.824 7.38707 68.4002 7.38707C67.8439 7.38707 67.3834 7.26634 67.0188 7.02486C66.6542 6.78338 66.4234 6.43063 66.3263 5.96662L67.1218 5.76776C67.1976 6.06132 67.3408 6.28149 67.5515 6.42827C67.7646 6.57505 68.0427 6.64844 68.386 6.64844C68.7766 6.64844 69.0868 6.56558 69.3164 6.39986C69.5484 6.23177 69.6644 6.03054 69.6644 5.79616C69.6644 5.60677 69.5981 5.44815 69.4656 5.32031C69.333 5.1901 69.1294 5.09304 68.8548 5.02912L67.9457 4.81605C67.4461 4.69768 67.0792 4.5142 66.8448 4.26562C66.6128 4.01468 66.4968 3.70099 66.4968 3.32457C66.4968 3.01681 66.5832 2.74455 66.756 2.50781C66.9312 2.27107 67.1692 2.08523 67.4698 1.95028C67.7728 1.81534 68.1161 1.74787 68.4996 1.74787C69.0394 1.74787 69.4632 1.86624 69.771 2.10298C70.0811 2.33973 70.3013 2.65223 70.4315 3.04048ZM72.4032 7.33026C72.228 7.33026 72.0777 7.26752 71.9522 7.14205C71.8268 7.01657 71.764 6.86624 71.764 6.69105C71.764 6.51586 71.8268 6.36553 71.9522 6.24006C72.0777 6.11458 72.228 6.05185 72.4032 6.05185C72.5784 6.05185 72.7288 6.11458 72.8542 6.24006C72.9797 6.36553 73.0424 6.51586 73.0424 6.69105C73.0424 6.80705 73.0128 6.91359 72.9537 7.01065C72.8968 7.10772 72.8199 7.18584 72.7228 7.24503C72.6281 7.30185 72.5216 7.33026 72.4032 7.33026ZM76.7623 7.38707C76.2509 7.38707 75.8105 7.26634 75.4412 7.02486C75.0719 6.78338 74.7878 6.45076 74.589 6.02699C74.3901 5.60322 74.2907 5.11908 74.2907 4.57457C74.2907 4.0206 74.3925 3.53172 74.5961 3.10795C74.802 2.68182 75.0885 2.3492 75.4554 2.11009C75.8248 1.86861 76.2556 1.74787 76.748 1.74787C77.1316 1.74787 77.4772 1.81889 77.785 1.96094C78.0927 2.10298 78.3449 2.30185 78.5414 2.55753C78.7379 2.81321 78.8598 3.11151 78.9071 3.45241H78.0691C78.0051 3.20384 77.8631 2.98366 77.6429 2.7919C77.4251 2.59777 77.1316 2.50071 76.7623 2.50071C76.4355 2.50071 76.1491 2.58594 75.9029 2.75639C75.659 2.92448 75.4685 3.16241 75.3311 3.47017C75.1962 3.77557 75.1287 4.13423 75.1287 4.54616C75.1287 4.96757 75.195 5.33452 75.3276 5.64702C75.4625 5.95952 75.6519 6.20218 75.8958 6.375C76.142 6.54782 76.4308 6.63423 76.7623 6.63423C76.9801 6.63423 77.1777 6.59635 77.3553 6.5206C77.5328 6.44484 77.6832 6.33594 77.8063 6.19389C77.9294 6.05185 78.017 5.88139 78.0691 5.68253H78.9071C78.8598 6.0045 78.7426 6.29451 78.5556 6.55256C78.3709 6.80824 78.1259 7.01184 77.8205 7.16335C77.5175 7.3125 77.1647 7.38707 76.7623 7.38707ZM82.3482 7.38707C81.8558 7.38707 81.4237 7.26989 81.052 7.03551C80.6827 6.80114 80.3939 6.47325 80.1855 6.05185C79.9796 5.63045 79.8766 5.13802 79.8766 4.57457C79.8766 4.00639 79.9796 3.51042 80.1855 3.08665C80.3939 2.66288 80.6827 2.33381 81.052 2.09943C81.4237 1.86506 81.8558 1.74787 82.3482 1.74787C82.8406 1.74787 83.2715 1.86506 83.6408 2.09943C84.0125 2.33381 84.3013 2.66288 84.5073 3.08665C84.7156 3.51042 84.8198 4.00639 84.8198 4.57457C84.8198 5.13802 84.7156 5.63045 84.5073 6.05185C84.3013 6.47325 84.0125 6.80114 83.6408 7.03551C83.2715 7.26989 82.8406 7.38707 82.3482 7.38707ZM82.3482 6.63423C82.7222 6.63423 83.03 6.53835 83.2715 6.34659C83.513 6.15483 83.6917 5.9027 83.8077 5.5902C83.9237 5.2777 83.9817 4.93916 83.9817 4.57457C83.9817 4.20999 83.9237 3.87027 83.8077 3.5554C83.6917 3.24053 83.513 2.98603 83.2715 2.7919C83.03 2.59777 82.7222 2.50071 82.3482 2.50071C81.9741 2.50071 81.6664 2.59777 81.4249 2.7919C81.1834 2.98603 81.0047 3.24053 80.8887 3.5554C80.7727 3.87027 80.7147 4.20999 80.7147 4.57457C80.7147 4.93916 80.7727 5.2777 80.8887 5.5902C81.0047 5.9027 81.1834 6.15483 81.4249 6.34659C81.6664 6.53835 81.9741 6.63423 82.3482 6.63423ZM86.0991 7.27344V1.81889H86.9087V2.67116H86.9798C87.0934 2.37997 87.2769 2.15388 87.5302 1.9929C87.7835 1.82955 88.0877 1.74787 88.4428 1.74787C88.8027 1.74787 89.1022 1.82955 89.3413 1.9929C89.5827 2.15388 89.771 2.37997 89.9059 2.67116H89.9627C90.1024 2.38944 90.3119 2.16572 90.5913 2C90.8706 1.83191 91.2056 1.74787 91.5962 1.74787C92.0839 1.74787 92.4828 1.90057 92.793 2.20597C93.1031 2.509 93.2582 2.9813 93.2582 3.62287V7.27344H92.4201V3.62287C92.4201 3.22041 92.31 2.93277 92.0898 2.75994C91.8697 2.58712 91.6104 2.50071 91.3121 2.50071C90.9286 2.50071 90.6315 2.61671 90.4208 2.84872C90.2101 3.07836 90.1048 3.36955 90.1048 3.7223V7.27344H89.2525V3.53764C89.2525 3.22751 89.1519 2.97775 88.9506 2.78835C88.7494 2.59659 88.4902 2.50071 88.1729 2.50071C87.9551 2.50071 87.7515 2.55871 87.5621 2.67472C87.3751 2.79072 87.2236 2.9517 87.1076 3.15767C86.994 3.36127 86.9371 3.59683 86.9371 3.86435V7.27344H86.0991Z" fill="black"/>
</svg>
